<svg width="142" height="35" viewBox="0 0 142 35" version="1.1" xmlns="http://www.w3.org/2000/svg" xmlns:xlink="http://www.w3.org/1999/xlink">
<title>SafeLaneLogo</title>
<desc>Created using Figma</desc>
<g id="Canvas" transform="translate(-247 302)">
<g id="SafeLaneLogo">
<g id="Vector">
<use xlink:href="#path0_fill" transform="translate(247 -302)" fill="#63A2FF"/>
<use xlink:href="#path1_fill" transform="translate(247 -302)" fill="#63A2FF"/>
<use xlink:href="#path2_fill" transform="translate(247 -302)" fill="#63A2FF"/>
<use xlink:href="#path3_fill" transform="translate(247 -302)" fill="#63A2FF"/>
</g>
<g id="Vector">
<use xlink:href="#path4_fill" transform="translate(318.136 -299.371)" fill="#FFFFFF"/>
<use xlink:href="#path5_fill" transform="translate(318.136 -299.371)" fill="#FFFFFF"/>
<use xlink:href="#path6_fill" transform="translate(318.136 -299.371)" fill="#FFFFFF"/>
<use xlink:href="#path7_fill" transform="translate(318.136 -299.371)" fill="#FFFFFF"/>
<use xlink:href="#path8_fill" transform="translate(318.136 -299.371)" fill="#FFFFFF"/>
<use xlink:href="#path9_fill" transform="translate(318.136 -299.371)" fill="#FFFFFF"/>
</g>
</g>
</g>
<defs>
<path id="path0_fill" d="M 0 9.48171C 0 8.53619 0.18117 7.64911 0.54351 6.82046C 0.90585 5.9918 1.39607 5.26939 2.01418 4.65321C 2.64295 4.02641 3.37296 3.5324 4.20421 3.17119C 5.03546 2.80999 5.92533 2.62938 6.8738 2.62938L 17.3923 2.62938L 17.3923 7.20291L 6.8738 7.20291C 6.55409 7.20291 6.25569 7.26134 5.97861 7.3782C 5.70153 7.49507 5.45642 7.65973 5.24327 7.87221C 5.04079 8.07406 4.88093 8.3131 4.76371 8.58931C 4.64648 8.86553 4.58786 9.163 4.58786 9.48171C 4.58786 9.80042 4.64648 10.1032 4.76371 10.39C 4.88093 10.6663 5.04079 10.9106 5.24327 11.1231C 5.45642 11.3249 5.70153 11.4843 5.97861 11.6012C 6.25569 11.718 6.55409 11.7764 6.8738 11.7764L 11.4617 11.7764C 12.4101 11.7764 13.3 11.957 14.1313 12.3183C 14.9732 12.6688 15.7032 13.1575 16.3213 13.7843C 16.9501 14.4005 17.4403 15.1282 17.792 15.9675C 18.1543 16.7962 18.3355 17.6833 18.3355 18.6288C 18.3355 19.5743 18.1543 20.4614 17.792 21.29C 17.4403 22.1187 16.9501 22.8464 16.3213 23.4732C 15.7032 24.0894 14.9732 24.5781 14.1313 24.9393C 13.3 25.3005 12.4101 25.4811 11.4617 25.4811L 1.27885 25.4811L 1.27885 20.9076L 11.4617 20.9076C 11.7814 20.9076 12.0798 20.8491 12.3569 20.7323C 12.6339 20.6154 12.8737 20.4561 13.0762 20.2542C 13.2894 20.0417 13.4545 19.7974 13.5718 19.5212C 13.689 19.2449 13.7476 18.9475 13.7476 18.6288C 13.7476 18.3101 13.689 18.0126 13.5718 17.7364C 13.4545 17.4602 13.2894 17.2211 13.0762 17.0193C 12.8737 16.8068 12.6339 16.6421 12.3569 16.5253C 12.0798 16.4084 11.7814 16.35 11.4617 16.35L 6.8738 16.35C 5.92533 16.35 5.03546 16.1694 4.20421 15.8082C 3.37296 15.447 2.64295 14.9583 2.01418 14.3421C 1.39607 13.7153 0.90585 12.9876 0.54351 12.1589C 0.18117 11.3196 0 10.4272 0 9.48171Z"/>
<path id="path1_fill" d="M 37.4702 25.4811L 36.4152 25.4811L 34.7207 23.1386C 34.3051 23.5104 33.8628 23.861 33.3939 24.1903C 32.9356 24.509 32.4507 24.7906 31.9392 25.0349C 31.4277 25.2686 30.9001 25.4545 30.3566 25.5927C 29.8238 25.7308 29.2803 25.7998 28.7261 25.7998C 27.5219 25.7998 26.3869 25.598 25.3212 25.1943C 24.2661 24.7906 23.339 24.2062 22.5397 23.4413C 21.7511 22.6658 21.1276 21.7203 20.6694 20.6048C 20.2111 19.4893 19.982 18.2198 19.982 16.7962C 19.982 15.4682 20.2111 14.2518 20.6694 13.1469C 21.1276 12.0314 21.7511 11.0753 22.5397 10.2785C 23.339 9.48171 24.2661 8.86553 25.3212 8.42996C 26.3869 7.98376 27.5219 7.76066 28.7261 7.76066C 29.2803 7.76066 29.8291 7.82972 30.3726 7.96782C 30.9161 8.10593 31.4437 8.29716 31.9552 8.54151C 32.4667 8.78585 32.9516 9.0727 33.4099 9.40203C 33.8788 9.73137 34.3157 10.0873 34.7207 10.4697L 36.4152 8.44589L 37.4702 8.44589L 37.4702 25.4811ZM 33.0742 16.7962C 33.0742 16.2012 32.957 15.6276 32.7225 15.0751C 32.4987 14.5121 32.1897 14.0181 31.7953 13.5931C 31.401 13.1575 30.9374 12.8123 30.4046 12.5573C 29.8824 12.2917 29.3229 12.1589 28.7261 12.1589C 28.1293 12.1589 27.5645 12.2598 27.0316 12.4617C 26.5094 12.6635 26.0512 12.961 25.6569 13.3541C 25.2732 13.7472 24.9695 14.2358 24.7457 14.8202C 24.5219 15.3938 24.41 16.0525 24.41 16.7962C 24.41 17.5398 24.5219 18.2038 24.7457 18.7881C 24.9695 19.3618 25.2732 19.8452 25.6569 20.2383C 26.0512 20.6314 26.5094 20.9288 27.0316 21.1307C 27.5645 21.3325 28.1293 21.4334 28.7261 21.4334C 29.3229 21.4334 29.8824 21.306 30.4046 21.051C 30.9374 20.7854 31.401 20.4401 31.7953 20.0152C 32.1897 19.5796 32.4987 19.0856 32.7225 18.5332C 32.957 17.9701 33.0742 17.3911 33.0742 16.7962Z"/>
<path id="path2_fill" d="M 46.3582 25.4811L 41.9941 25.4811L 41.9941 12.7485L 39.8681 12.7485L 39.8681 8.41402L 41.9941 8.41402L 41.9941 7.6013C 41.9941 6.54955 42.1913 5.56154 42.5856 4.63727C 42.9906 3.71301 43.5394 2.91091 44.2321 2.23099C 44.9355 1.54045 45.7508 0.998634 46.6779 0.605555C 47.6051 0.201852 48.5962 0 49.6512 0L 52.9283 0L 52.9283 4.3345L 49.6512 4.3345C 49.1823 4.3345 48.7454 4.41949 48.3404 4.58947C 47.9461 4.74882 47.5998 4.97723 47.3014 5.2747C 47.0136 5.56154 46.7845 5.90681 46.614 6.31052C 46.4435 6.7036 46.3582 7.13386 46.3582 7.6013L 46.3582 8.41402L 51.7134 8.41402L 51.7134 12.7485L 46.3582 12.7485L 46.3582 25.4811Z"/>
<path id="path3_fill" d="M 60.4415 21.306C 60.612 21.3591 60.7825 21.3963 60.9531 21.4175C 61.1236 21.4281 61.2941 21.4334 61.4646 21.4334C 61.8909 21.4334 62.3012 21.375 62.6955 21.2582C 63.0898 21.1413 63.4575 20.9766 63.7985 20.7641C 64.1502 20.541 64.4592 20.2755 64.7257 19.9674C 65.0027 19.6487 65.2265 19.2981 65.397 18.9156L 68.5942 22.1187C 68.1892 22.6924 67.7203 23.2076 67.1874 23.6644C 66.6652 24.1213 66.0951 24.509 65.477 24.8277C 64.8695 25.1465 64.2248 25.3855 63.5427 25.5448C 62.8713 25.7148 62.1786 25.7998 61.4646 25.7998C 60.2603 25.7998 59.1254 25.5767 58.0597 25.1305C 57.0046 24.6843 56.0774 24.0628 55.2782 23.266C 54.4895 22.4693 53.8661 21.5237 53.4079 20.4295C 52.9496 19.3246 52.7205 18.1135 52.7205 16.7962C 52.7205 15.447 52.9496 14.2146 53.4079 13.0991C 53.8661 11.9836 54.4895 11.0328 55.2782 10.2466C 56.0774 9.46046 57.0046 8.8496 58.0597 8.41402C 59.1254 7.97845 60.2603 7.76066 61.4646 7.76066C 62.1786 7.76066 62.8767 7.84565 63.5587 8.01563C 64.2408 8.18561 64.8855 8.42996 65.493 8.74867C 66.1111 9.06738 66.6866 9.46046 67.2194 9.92791C 67.7523 10.3847 68.2212 10.9 68.6261 11.4737L 60.4415 21.306ZM 62.6795 12.3342C 62.477 12.2598 62.2745 12.212 62.072 12.1908C 61.8802 12.1695 61.6777 12.1589 61.4646 12.1589C 60.8678 12.1589 60.303 12.2704 59.7701 12.4935C 59.2479 12.706 58.7897 13.0141 58.3954 13.4178C 58.0117 13.8215 57.708 14.3102 57.4842 14.8839C 57.2604 15.447 57.1485 16.0844 57.1485 16.7962C 57.1485 16.9555 57.1538 17.1361 57.1645 17.338C 57.1858 17.5398 57.2124 17.747 57.2444 17.9595C 57.287 18.1613 57.335 18.3579 57.3883 18.5491C 57.4416 18.7403 57.5108 18.9103 57.5961 19.059L 62.6795 12.3342Z"/>
<path id="path4_fill" d="M 19.7042 32.3706L 0 32.3706L 0 0L 4.58786 0L 4.58786 27.7971L 24.2175 27.7971L 19.7042 32.3706Z"/>
<path id="path5_fill" d="M 26.1447 22.8517L 25.0897 22.8517L 23.3952 20.5092C 22.9796 20.881 22.5373 21.2316 22.0684 21.5609C 21.6102 21.8796 21.1253 22.1612 20.6137 22.4055C 20.1022 22.6392 19.5747 22.8252 19.0312 22.9633C 18.4983 23.1014 17.9548 23.1704 17.4006 23.1704C 16.1964 23.1704 15.0614 23.2554 13.9957 22.8517C 12.9406 22.448 12.0135 21.5769 11.2142 20.812C 10.4256 20.0364 9.80214 19.0909 9.34388 17.9754C 8.88563 16.8599 8.6565 15.5904 8.6565 14.1668C 8.6565 12.8388 8.88563 11.6224 9.34388 10.5175C 9.80214 9.40203 10.4256 8.44589 11.2142 7.64911C 12.0135 6.85233 12.9406 6.23615 13.9957 5.80058C 15.0614 5.35438 16.1964 5.13128 17.4006 5.13128C 17.9548 5.13128 18.5036 5.20033 19.0471 5.33844C 19.5906 5.47655 20.1182 5.66778 20.6297 5.91213C 21.1413 6.15647 21.6262 6.44331 22.0844 6.77265C 22.5533 7.10199 22.9902 7.45788 23.3952 7.84034L 25.0897 5.81651L 26.1447 5.81651L 26.1447 22.8517ZM 21.7487 14.1668C 21.7487 13.5719 21.6315 12.9982 21.397 12.4457C 21.1732 11.8827 20.8642 11.3887 20.4699 10.9637C 20.0755 10.5282 19.612 10.1829 19.0791 9.92791C 18.5569 9.66231 17.9974 9.52952 17.4006 9.52952C 16.8038 9.52952 16.239 9.63044 15.7061 9.8323C 15.184 10.0341 14.7257 10.3316 14.3314 10.7247C 13.9477 11.1178 13.644 11.6065 13.4202 12.1908C 13.1964 12.7645 13.0845 13.4231 13.0845 14.1668C 13.0845 14.9105 13.1964 15.5744 13.4202 16.1587C 13.644 16.7324 13.9477 17.2158 14.3314 17.6089C 14.7257 18.002 15.184 18.2994 15.7061 18.5013C 16.239 18.7031 16.8038 18.8041 17.4006 18.8041C 17.9974 18.8041 18.5569 18.6766 19.0791 18.4216C 19.612 18.156 20.0755 17.8107 20.4699 17.3858C 20.8642 16.9502 21.1732 16.4562 21.397 15.9038C 21.6315 15.3407 21.7487 14.7617 21.7487 14.1668Z"/>
<path id="path6_fill" d="M 33.626 22.8517L 29.2619 22.8517L 29.2619 5.78464L 30.317 5.78464L 31.7557 7.44195C 32.459 6.80452 33.253 6.31583 34.1375 5.97587C 35.0327 5.62528 35.9652 5.44999 36.935 5.44999C 37.9794 5.44999 38.9652 5.65184 39.8923 6.05555C 40.8195 6.44863 41.6294 6.99575 42.3221 7.69692C 43.0149 8.38746 43.5584 9.20018 43.9527 10.1351C 44.3577 11.0593 44.5601 12.0473 44.5601 13.0991L 44.5601 22.8517L 40.1961 22.8517L 40.1961 13.0991C 40.1961 12.6529 40.1108 12.2333 39.9403 11.8402C 39.7698 11.4365 39.5353 11.0859 39.2369 10.7884C 38.9385 10.491 38.5922 10.2572 38.1979 10.0873C 37.8036 9.91729 37.3826 9.8323 36.935 9.8323C 36.4768 9.8323 36.0451 9.91729 35.6402 10.0873C 35.2352 10.2572 34.8835 10.491 34.5851 10.7884C 34.2867 11.0859 34.0523 11.4365 33.8818 11.8402C 33.7113 12.2333 33.626 12.6529 33.626 13.0991L 33.626 22.8517Z"/>
<path id="path7_fill" d="M 54.4872 18.6766C 54.6577 18.7297 54.8282 18.7669 54.9987 18.7881C 55.1692 18.7988 55.3398 18.8041 55.5103 18.8041C 55.9366 18.8041 56.3469 18.7456 56.7412 18.6288C 57.1355 18.5119 57.5031 18.3472 57.8442 18.1348C 58.1959 17.9117 58.5049 17.6461 58.7713 17.338C 59.0484 17.0193 59.2722 16.6687 59.4427 16.2862L 62.6398 19.4893C 62.2349 20.063 61.766 20.5782 61.2331 21.0351C 60.7109 21.4919 60.1408 21.8796 59.5227 22.1984C 58.9152 22.5171 58.2704 22.7561 57.5884 22.9155C 56.917 23.0854 56.2243 23.1704 55.5103 23.1704C 54.306 23.1704 53.171 22.9473 52.1053 22.5011C 51.0503 22.0549 50.1231 21.4334 49.3238 20.6367C 48.5352 19.8399 47.9118 18.8944 47.4535 17.8001C 46.9953 16.6952 46.7661 15.4841 46.7661 14.1668C 46.7661 12.8176 46.9953 11.5852 47.4535 10.4697C 47.9118 9.35423 48.5352 8.4034 49.3238 7.61724C 50.1231 6.83108 51.0503 6.22022 52.1053 5.78464C 53.171 5.34907 54.306 5.13128 55.5103 5.13128C 56.2243 5.13128 56.9223 5.21627 57.6044 5.38625C 58.2864 5.55623 58.9312 5.80058 59.5386 6.11929C 60.1567 6.438 60.7322 6.83108 61.2651 7.29853C 61.7979 7.75535 62.2668 8.2706 62.6718 8.84429L 54.4872 18.6766ZM 56.7252 9.70481C 56.5227 9.63044 56.3202 9.58264 56.1177 9.56139C 55.9259 9.54014 55.7234 9.52952 55.5103 9.52952C 54.9135 9.52952 54.3486 9.64107 53.8158 9.86417C 53.2936 10.0766 52.8353 10.3847 52.441 10.7884C 52.0574 11.1921 51.7536 11.6808 51.5299 12.2545C 51.3061 12.8176 51.1942 13.455 51.1942 14.1668C 51.1942 14.3261 51.1995 14.5068 51.2101 14.7086C 51.2315 14.9105 51.2581 15.1176 51.2901 15.3301C 51.3327 15.5319 51.3807 15.7285 51.4339 15.9197C 51.4872 16.1109 51.5565 16.2809 51.6417 16.4297L 56.7252 9.70481Z"/>
<path id="path8_fill" d="M 24.441 32.3706L 43.6133 32.3706L 47.6526 28.3322L 28.1946 28.3322L 24.441 32.3706Z"/>
<path id="path9_fill" d="M 47.6526 32.3706L 66.8248 32.3706L 70.8641 28.3322L 51.4062 28.3322L 47.6526 32.3706Z"/>
</defs>
</svg>
